<?xml version="1.0" encoding="UTF-8"?>
<svg id="exportSvg" xmlns="http://www.w3.org/2000/svg" xmlns:xlink="http://www.w3.org/1999/xlink" version="1.1" viewBox="0 0 600 236">
  <!-- Generator: Adobe Illustrator 29.4.0, SVG Export Plug-In . SVG Version: 2.1.0 Build 152)  -->
  <defs>
    <style>
      .st0, .st1, .st2, .st3 {
        fill: none;
      }

      .st4 {
        font-size: 20px;
      }

      .st4, .st5, .st6, .st7, .st8, .st9, .st10, .st11, .st12 {
        isolation: isolate;
      }

      .st4, .st7, .st9 {
        font-family: Arial-BoldMT, Arial;
        font-weight: 700;
      }

      .st5, .st6, .st8, .st12 {
        font-family: ArialMT, Arial;
      }

      .st5, .st7 {
        font-size: 14px;
      }

      .st5, .st7, .st11, .st12 {
        fill: #181818;
      }

      .st6 {
        fill: #888;
        font-size: 11px;
      }

      .st8, .st9 {
        fill: #333;
      }

      .st8, .st9, .st12 {
        font-size: 12px;
      }

      .st1 {
        stroke: #d8d8d8;
        stroke-dasharray: 1 1;
      }

      .st2, .st3 {
        stroke: #181818;
      }

      .st13 {
        clip-path: url(#clippath-1);
      }

      .st3 {
        stroke-miterlimit: 4;
        stroke-width: 1px;
      }

      .st14 {
        fill: #fff;
      }

      .st11 {
        font-family: Arial-ItalicMT, Arial;
        font-size: 17px;
        font-style: italic;
      }

      .st15 {
        fill: #ffe59c;
      }

      .st16 {
        clip-path: url(#clippath);
      }
    </style>
    <clipPath id="clippath">
      <rect class="st0" width="600" height="236.78"/>
    </clipPath>
    <clipPath id="clippath-1">
      <rect class="st0" y="236.97" width="600" height="275"/>
    </clipPath>
  </defs>
  <rect class="st14" y=".8" width="600" height="236"/>
  <g class="st16">
    <g id="container-svg_container-body-svg_datawrapper-YWER5-8pdpge-svg">
      <g id="container-svg_container-bodyTop-svg_datawrapper-YWER5-lmtz6e-svg">
        <g id="container-svg_container-bodyCenter-svg_datawrapper-YWER5-1fgvipr-svg">
          <g id="container-svg_container-header-svg_datawrapper-YWER5-xp3kt5-svg">
            <g class="st10">
              <text class="st4" transform="translate(0 25)"><tspan x="0" y="0" xml:space="preserve">Top Nonprofits and  Private Spending on Advocacy Ads</tspan></text>
            </g>
            <g class="st10">
              <text class="st5" transform="translate(0 52)"><tspan x="0" y="0" xml:space="preserve">   NGOs, foundations, and other nonprofits that spent the most on ads related to social issues,  </tspan></text>
              <text class="st5" transform="translate(0 69)"><tspan x="0" y="0" xml:space="preserve">   elections, or politics.</tspan></text>
            </g>
          </g>
          <g id="chart-svg">
            <g class="st10">
              <text class="st7" transform="translate(1 96.8)"><tspan x="0" y="0">UNICEF Finland</tspan></text>
            </g>
            <rect class="st15" x="207.88" y="82" width="391.11" height="20"/>
            <g class="st10">
              <text class="st12" transform="translate(1 120.8)"><tspan x="0" y="0">WWF Finald</tspan></text>
            </g>
            <rect class="st15" x="207.88" y="106" width="243.69" height="20"/>
            <g class="st10">
              <text class="st12" transform="translate(1 144.8)"><tspan x="0" y="0">Finn Church Aid</tspan></text>
            </g>
            <rect class="st15" x="207.88" y="130" width="145" height="20"/>
            <g class="st10">
              <text class="st12" transform="translate(1 168.8)"><tspan x="0" y="0">Greenpeace Finland</tspan></text>
            </g>
            <rect class="st15" x="207.88" y="154" width="127.84" height="20"/>
            <g class="st10">
              <text class="st12" transform="translate(1 190)"><tspan x="0" y="0">The Association of Finnish Cities and </tspan></text>
              <text class="st12" transform="translate(1 204.39)"><tspan x="0" y="0">Municipalities</tspan></text>
            </g>
            <rect class="st15" x="207.88" y="182.39" width="110.39" height="20"/>
            <g class="st10">
              <text class="st9" transform="translate(212.88 97)"><tspan x="0" y="0">22,164</tspan></text>
            </g>
            <g class="st10">
              <text class="st8" transform="translate(212.88 121)"><tspan x="0" y="0">13,809</tspan></text>
            </g>
            <g class="st10">
              <text class="st8" transform="translate(212.88 145)"><tspan x="0" y="0">8,217</tspan></text>
            </g>
            <g class="st10">
              <text class="st8" transform="translate(212.88 169)"><tspan x="0" y="0">7,244</tspan></text>
            </g>
            <g class="st10">
              <text class="st8" transform="translate(212.88 197.39)"><tspan x="0" y="0">6,255</tspan></text>
            </g>
          </g>
        </g>
      </g>
      <text/>
      <text/>
    </g>
  </g>
  <rect class="st14" y="236.97" width="600" height="275"/>
  <g class="st13">
    <text/>
    <text class="st5" transform="translate(1.98 268.43)"><tspan x="0" y="0">Private companies that used most money on ads about social issues, elections or politics.</tspan></text>
    <text class="st7" transform="translate(1 317.27)"><tspan x="0" y="0">Vattenfall</tspan></text>
    <rect class="st15" x="129.58" y="298.97" width="469.41" height="27"/>
    <line class="st1" x1="1" y1="330.97" x2="599" y2="330.97"/>
    <text class="st12" transform="translate(1 355.27)"><tspan x="0" y="0">Rapport</tspan></text>
    <rect class="st15" x="129.58" y="336.97" width="28.31" height="27"/>
    <line class="st1" x1="1" y1="368.97" x2="599" y2="368.97"/>
    <text class="st12" transform="translate(1 393.27)"><tspan x="0" y="0">Uusi Juttu</tspan></text>
    <rect class="st15" x="129.58" y="374.97" width="28.19" height="27"/>
    <text/>
    <text class="st12" transform="translate(1 431.27)"><tspan x="0" y="0">All Things Live Finland</tspan></text>
    <rect class="st15" x="129.58" y="412.97" width="25.91" height="27"/>
    <text/>
    <text class="st12" transform="translate(1 469.27)"><tspan x="0" y="0">Länsiväylä</tspan></text>
    <rect class="st15" x="129.58" y="450.97" width="20.23" height="27"/>
    <path class="st2" d="M255.69,380.97c-9.48-9.23-18.28-19.85-26.39-31.87"/>
    <path class="st3" d="M228.98,355.14l.32-6.04,5.8,1.71"/>
    <text class="st11" transform="translate(256.58 401.97)"><tspan x="0" y="0">Vattenfall is a Swedish state-owned </tspan></text>
    <text class="st11" transform="translate(256.58 422.36)"><tspan x="0" y="0">energy company operating across </tspan></text>
    <text class="st11" transform="translate(256.58 442.75)"><tspan x="0" y="0">several European countries.</tspan></text>
    <text/>
    <text class="st9" transform="translate(134.58 316.97)"><tspan x="0" y="0">49,252</tspan></text>
    <text class="st12" transform="translate(162.89 354.97)"><tspan x="0" y="0">2,970</tspan></text>
    <text class="st12" transform="translate(162.77 392.97)"><tspan x="0" y="0">2,957</tspan></text>
    <text class="st12" transform="translate(160.48 430.97)"><tspan x="0" y="0">2,718</tspan></text>
    <text class="st12" transform="translate(154.81 468.97)"><tspan x="0" y="0">2,123</tspan></text>
    <text class="st6" transform="translate(7.89 504.26)"><tspan x="0" y="0">Created by Rosa Kettumaki Data: Meta Ad Library</tspan></text>
    <text/>
  </g>
</svg>